<svg width="466" height="69" viewBox="0 0 466 69" fill="none" xmlns="http://www.w3.org/2000/svg">
<path d="M232.972 33.6897H217.589L215.044 41.0492H206.909L220.798 2.37048H229.818L243.707 41.0492H235.517L232.972 33.6897ZM230.869 27.4923L225.281 11.3347L219.692 27.4923H230.869Z" fill="white"/>
<path d="M210.277 2.42587V8.67866H199.984V41.0493H192.238V8.67866H181.945V2.42587H210.277Z" fill="white"/>
<path d="M174.707 33.6897H159.324L156.778 41.0492H148.644L162.533 2.37048H171.553L185.442 41.0492H177.252L174.707 33.6897ZM172.604 27.4923L167.015 11.3347L161.426 27.4923H172.604Z" fill="white"/>
<path d="M131.502 2.42618C135.56 2.42618 139.119 3.2193 142.181 4.80555C145.28 6.39181 147.659 8.66052 149.319 11.6117C151.016 14.526 151.865 17.9198 151.865 21.7932C151.865 25.6666 151.016 29.0605 149.319 31.9747C147.659 34.8521 145.28 37.0839 142.181 38.6702C139.119 40.2565 135.56 41.0496 131.502 41.0496H118V2.42618H131.502ZM131.225 34.4648C135.283 34.4648 138.418 33.3581 140.632 31.1447C142.845 28.9313 143.952 25.8142 143.952 21.7932C143.952 17.7722 142.845 14.6366 140.632 12.3864C138.418 10.0992 135.283 8.95563 131.225 8.95563H125.747V34.4648H131.225Z" fill="white"/>
<path d="M448.568 33.8173H433.185L430.639 41.1768H422.505L436.394 2.49802H445.414L459.302 41.1768H451.113L448.568 33.8173ZM446.465 27.6198L440.876 11.4622L435.287 27.6198H446.465Z" fill="#35E4FF"/>
<path d="M413.874 35.0346H426.601V41.1767H406.127V2.55334H413.874V35.0346Z" fill="#35E4FF"/>
<path d="M381.82 2.55334V26.4578C381.82 29.077 382.503 31.0874 383.868 32.4893C385.233 33.8542 387.151 34.5366 389.623 34.5366C392.131 34.5366 394.068 33.8542 395.433 32.4893C396.798 31.0874 397.48 29.077 397.48 26.4578V2.55334H405.282V26.4025C405.282 29.6856 404.563 32.4708 403.124 34.758C401.722 37.0082 399.823 38.7051 397.425 39.8487C395.064 40.9923 392.426 41.5641 389.512 41.5641C386.635 41.5641 384.015 40.9923 381.654 39.8487C379.33 38.7051 377.486 37.0082 376.121 34.758C374.756 32.4708 374.074 29.6856 374.074 26.4025V2.55334H381.82Z" fill="#35E4FF"/>
<path d="M373.165 2.55334V41.1767H365.419V16.0549L355.071 41.1767H349.206L338.803 16.0549V41.1767H331.056V2.55334H339.854L352.138 31.2719L364.423 2.55334H373.165Z" fill="#35E4FF"/>
<path d="M322.168 41.1767L313.646 26.1258H309.994V41.1767H302.247V2.55334H316.745C319.733 2.55334 322.278 3.08824 324.381 4.15804C326.484 5.19095 328.052 6.6112 329.085 8.41879C330.154 10.1895 330.689 12.1815 330.689 14.3949C330.689 16.9403 329.951 19.2459 328.476 21.3117C327 23.3406 324.805 24.7424 321.891 25.5171L331.132 41.1767H322.168ZM309.994 20.3157H316.468C318.571 20.3157 320.139 19.8177 321.172 18.8217C322.205 17.7887 322.721 16.3685 322.721 14.5609C322.721 12.7902 322.205 11.4253 321.172 10.4662C320.139 9.47014 318.571 8.97213 316.468 8.97213H309.994V20.3157Z" fill="#35E4FF"/>
<path d="M283.37 41.5641C279.755 41.5641 276.435 40.7156 273.41 39.0187C270.385 37.3218 267.987 34.9793 266.216 31.9912C264.446 28.9663 263.56 25.554 263.56 21.7544C263.56 17.9916 264.446 14.6162 266.216 11.6282C267.987 8.60323 270.385 6.2423 273.41 4.54538C276.435 2.84846 279.755 2 283.37 2C287.022 2 290.342 2.84846 293.33 4.54538C296.355 6.2423 298.734 8.60323 300.468 11.6282C302.239 14.6162 303.124 17.9916 303.124 21.7544C303.124 25.554 302.239 28.9663 300.468 31.9912C298.734 34.9793 296.355 37.3218 293.33 39.0187C290.305 40.7156 286.985 41.5641 283.37 41.5641ZM283.37 34.6473C285.694 34.6473 287.741 34.1308 289.512 33.0979C291.283 32.0281 292.666 30.5157 293.662 28.5605C294.658 26.6054 295.156 24.3366 295.156 21.7544C295.156 19.1721 294.658 16.9218 293.662 15.0036C292.666 13.0484 291.283 11.5544 289.512 10.5215C287.741 9.48859 285.694 8.97213 283.37 8.97213C281.046 8.97213 278.98 9.48859 277.172 10.5215C275.402 11.5544 274.018 13.0484 273.022 15.0036C272.026 16.9218 271.528 19.1721 271.528 21.7544C271.528 24.3366 272.026 26.6054 273.022 28.5605C274.018 30.5157 275.402 32.0281 277.172 33.0979C278.98 34.1308 281.046 34.6473 283.37 34.6473Z" fill="#35E4FF"/>
<path d="M266.588 2.55334V8.80613H250.486V18.711H262.518C262.518 18.711 262.329 20.6964 262.355 21.9896C262.378 23.1226 262.518 24.9702 262.518 24.9702L250.486 24.8531V41.1767H242.739V2.55334H266.588Z" fill="#35E4FF"/>
<path d="M126.872 53.6162C126.872 54.6263 126.541 55.44 125.879 56.0572C125.217 56.6745 124.223 56.9832 122.899 56.9832H120.525V62H119.347V50.2323H122.899C124.212 50.2323 125.2 50.541 125.862 51.1583C126.535 51.7755 126.872 52.5949 126.872 53.6162ZM122.899 55.9731C124.74 55.9731 125.66 55.1874 125.66 53.6162C125.66 52.8305 125.441 52.2357 125.003 51.8317C124.566 51.4276 123.864 51.2256 122.899 51.2256H120.525V55.9731H122.899ZM129.152 57.3872C129.152 56.4445 129.338 55.6195 129.708 54.9125C130.09 54.1942 130.611 53.6442 131.274 53.2626C131.947 52.8698 132.705 52.6734 133.546 52.6734C134.422 52.6734 135.174 52.8754 135.802 53.2795C136.442 53.6835 136.902 54.1998 137.183 54.8283V52.8081H138.361V62H137.183V59.963C136.891 60.5915 136.425 61.1134 135.785 61.5286C135.157 61.9327 134.405 62.1347 133.529 62.1347C132.699 62.1347 131.947 61.9383 131.274 61.5455C130.611 61.1526 130.09 60.5971 129.708 59.8788C129.338 59.1605 129.152 58.33 129.152 57.3872ZM137.183 57.404C137.183 56.6633 137.031 56.0124 136.728 55.4512C136.425 54.89 136.01 54.4579 135.482 54.1549C134.966 53.8519 134.394 53.7003 133.765 53.7003C133.114 53.7003 132.531 53.8463 132.014 54.1381C131.498 54.4299 131.088 54.8564 130.785 55.4175C130.494 55.9675 130.348 56.624 130.348 57.3872C130.348 58.1392 130.494 58.8014 130.785 59.3737C131.088 59.9349 131.498 60.367 132.014 60.67C132.531 60.9618 133.114 61.1077 133.765 61.1077C134.394 61.1077 134.966 60.9562 135.482 60.6532C136.01 60.3502 136.425 59.9181 136.728 59.3569C137.031 58.7957 137.183 58.1448 137.183 57.404ZM143.072 54.4411C143.33 53.8687 143.723 53.4254 144.25 53.1111C144.789 52.7969 145.445 52.6397 146.22 52.6397V53.8687H145.9C145.047 53.8687 144.362 54.0988 143.846 54.5589C143.33 55.0191 143.072 55.7879 143.072 56.8653V62H141.893V52.8081H143.072V54.4411ZM148.296 57.3872C148.296 56.4445 148.481 55.6195 148.851 54.9125C149.233 54.1942 149.755 53.6442 150.417 53.2626C151.09 52.8698 151.848 52.6734 152.69 52.6734C153.565 52.6734 154.317 52.8754 154.945 53.2795C155.585 53.6835 156.045 54.1998 156.326 54.8283V52.8081H157.504V62H156.326V59.963C156.034 60.5915 155.568 61.1134 154.929 61.5286C154.3 61.9327 153.548 62.1347 152.673 62.1347C151.842 62.1347 151.09 61.9383 150.417 61.5455C149.755 61.1526 149.233 60.5971 148.851 59.8788C148.481 59.1605 148.296 58.33 148.296 57.3872ZM156.326 57.404C156.326 56.6633 156.174 56.0124 155.871 55.4512C155.568 54.89 155.153 54.4579 154.626 54.1549C154.109 53.8519 153.537 53.7003 152.908 53.7003C152.257 53.7003 151.674 53.8463 151.158 54.1381C150.641 54.4299 150.232 54.8564 149.929 55.4175C149.637 55.9675 149.491 56.624 149.491 57.3872C149.491 58.1392 149.637 58.8014 149.929 59.3737C150.232 59.9349 150.641 60.367 151.158 60.67C151.674 60.9618 152.257 61.1077 152.908 61.1077C153.537 61.1077 154.109 60.9562 154.626 60.6532C155.153 60.3502 155.568 59.9181 155.871 59.3569C156.174 58.7957 156.326 58.1448 156.326 57.404ZM174.461 52.8081V62H173.282V60.3838C173.013 60.9562 172.598 61.3939 172.037 61.697C171.475 62 170.847 62.1515 170.151 62.1515C169.051 62.1515 168.153 61.8148 167.458 61.1414C166.762 60.4568 166.414 59.4691 166.414 58.1785V52.8081H167.575V58.0438C167.575 59.0427 167.822 59.8058 168.316 60.3333C168.821 60.8608 169.506 61.1246 170.37 61.1246C171.257 61.1246 171.964 60.844 172.491 60.2828C173.019 59.7217 173.282 58.8968 173.282 57.8081V52.8081H174.461ZM188.936 52.6397C190.013 52.6397 190.889 52.9821 191.562 53.6667C192.247 54.3401 192.589 55.3221 192.589 56.6128V62H191.427V56.7475C191.427 55.7486 191.186 54.9854 190.703 54.4579C190.221 53.9304 189.564 53.6667 188.734 53.6667C187.87 53.6667 187.179 53.9529 186.663 54.5253C186.147 55.0977 185.889 55.9282 185.889 57.0168V62H184.727V56.7475C184.727 55.7486 184.486 54.9854 184.003 54.4579C183.521 53.9304 182.858 53.6667 182.017 53.6667C181.152 53.6667 180.462 53.9529 179.946 54.5253C179.43 55.0977 179.172 55.9282 179.172 57.0168V62H177.993V52.8081H179.172V54.3906C179.463 53.8182 179.879 53.3861 180.417 53.0943C180.956 52.7913 181.556 52.6397 182.219 52.6397C183.016 52.6397 183.711 52.8305 184.306 53.2121C184.912 53.5937 185.35 54.1549 185.619 54.8956C185.866 54.1661 186.287 53.6106 186.882 53.229C187.488 52.8362 188.173 52.6397 188.936 52.6397ZM195.509 57.3872C195.509 56.4445 195.694 55.6195 196.065 54.9125C196.446 54.1942 196.968 53.6442 197.63 53.2626C198.304 52.8698 199.061 52.6734 199.903 52.6734C200.779 52.6734 201.531 52.8754 202.159 53.2795C202.799 53.6835 203.259 54.1998 203.54 54.8283V52.8081H204.718V62H203.54V59.963C203.248 60.5915 202.782 61.1134 202.142 61.5286C201.514 61.9327 200.762 62.1347 199.886 62.1347C199.056 62.1347 198.304 61.9383 197.63 61.5455C196.968 61.1526 196.446 60.5971 196.065 59.8788C195.694 59.1605 195.509 58.33 195.509 57.3872ZM203.54 57.404C203.54 56.6633 203.388 56.0124 203.085 55.4512C202.782 54.89 202.367 54.4579 201.839 54.1549C201.323 53.8519 200.751 53.7003 200.122 53.7003C199.471 53.7003 198.887 53.8463 198.371 54.1381C197.855 54.4299 197.445 54.8564 197.142 55.4175C196.85 55.9675 196.704 56.624 196.704 57.3872C196.704 58.1392 196.85 58.8014 197.142 59.3737C197.445 59.9349 197.855 60.367 198.371 60.67C198.887 60.9618 199.471 61.1077 200.122 61.1077C200.751 61.1077 201.323 60.9562 201.839 60.6532C202.367 60.3502 202.782 59.9181 203.085 59.3569C203.388 58.7957 203.54 58.1448 203.54 57.404ZM224.654 52.6397C225.732 52.6397 226.607 52.9821 227.281 53.6667C227.965 54.3401 228.307 55.3221 228.307 56.6128V62H227.146V56.7475C227.146 55.7486 226.905 54.9854 226.422 54.4579C225.939 53.9304 225.283 53.6667 224.452 53.6667C223.588 53.6667 222.898 53.9529 222.382 54.5253C221.865 55.0977 221.607 55.9282 221.607 57.0168V62H220.446V56.7475C220.446 55.7486 220.204 54.9854 219.722 54.4579C219.239 53.9304 218.577 53.6667 217.735 53.6667C216.871 53.6667 216.181 53.9529 215.664 54.5253C215.148 55.0977 214.89 55.9282 214.89 57.0168V62H213.712V52.8081H214.89V54.3906C215.182 53.8182 215.597 53.3861 216.136 53.0943C216.674 52.7913 217.275 52.6397 217.937 52.6397C218.734 52.6397 219.43 52.8305 220.025 53.2121C220.631 53.5937 221.068 54.1549 221.338 54.8956C221.585 54.1661 222.006 53.6106 222.6 53.229C223.206 52.8362 223.891 52.6397 224.654 52.6397ZM240.083 56.9327C240.083 57.3367 240.072 57.6453 240.049 57.8586H232.423C232.457 58.5544 232.625 59.1493 232.928 59.6431C233.231 60.1369 233.629 60.5129 234.123 60.771C234.617 61.018 235.156 61.1414 235.739 61.1414C236.503 61.1414 237.142 60.9562 237.659 60.5859C238.186 60.2155 238.534 59.7161 238.702 59.0875H239.948C239.724 59.9854 239.241 60.7205 238.5 61.2929C237.771 61.8541 236.851 62.1347 235.739 62.1347C234.875 62.1347 234.101 61.9439 233.416 61.5623C232.732 61.1695 232.193 60.6195 231.8 59.9125C231.418 59.1942 231.228 58.358 231.228 57.404C231.228 56.4501 231.418 55.6139 231.8 54.8956C232.182 54.1773 232.715 53.6274 233.399 53.2458C234.084 52.8642 234.864 52.6734 235.739 52.6734C236.615 52.6734 237.378 52.8642 238.029 53.2458C238.691 53.6274 239.196 54.1437 239.544 54.7946C239.903 55.4344 240.083 56.147 240.083 56.9327ZM238.888 56.899C238.899 56.2144 238.759 55.6308 238.467 55.1482C238.186 54.6656 237.799 54.3008 237.305 54.0539C236.811 53.807 236.273 53.6835 235.689 53.6835C234.814 53.6835 234.067 53.9641 233.45 54.5253C232.833 55.0864 232.49 55.8777 232.423 56.899H238.888ZM244.259 49.5421V62H243.081V49.5421H244.259ZM252.147 52.6397C252.842 52.6397 253.465 52.7856 254.015 53.0775C254.576 53.3693 255.014 53.8182 255.328 54.4243C255.654 55.0191 255.817 55.7486 255.817 56.6128V62H254.655V56.7475C254.655 55.7486 254.402 54.9854 253.897 54.4579C253.404 53.9304 252.725 53.6667 251.86 53.6667C250.974 53.6667 250.267 53.9473 249.739 54.5084C249.212 55.0696 248.948 55.8945 248.948 56.9832V62H247.769V49.5421H248.948V54.3737C249.24 53.8238 249.666 53.3973 250.227 53.0943C250.8 52.7913 251.44 52.6397 252.147 52.6397ZM263.288 62.1347C262.424 62.1347 261.644 61.9439 260.948 61.5623C260.264 61.1695 259.719 60.6195 259.315 59.9125C258.922 59.1942 258.726 58.358 258.726 57.404C258.726 56.4501 258.928 55.6195 259.332 54.9125C259.736 54.1942 260.286 53.6442 260.982 53.2626C261.678 52.8698 262.458 52.6734 263.322 52.6734C264.186 52.6734 264.966 52.8698 265.662 53.2626C266.369 53.6442 266.919 54.1942 267.312 54.9125C267.716 55.6195 267.918 56.4501 267.918 57.404C267.918 58.3468 267.716 59.1773 267.312 59.8956C266.908 60.6139 266.352 61.1695 265.645 61.5623C264.938 61.9439 264.152 62.1347 263.288 62.1347ZM263.288 61.1077C263.894 61.1077 264.455 60.9731 264.972 60.7037C265.488 60.4231 265.903 60.0079 266.217 59.4579C266.543 58.8968 266.706 58.2121 266.706 57.404C266.706 56.596 266.549 55.917 266.234 55.367C265.92 54.8058 265.505 54.3906 264.989 54.1212C264.472 53.8406 263.911 53.7003 263.305 53.7003C262.699 53.7003 262.138 53.8406 261.622 54.1212C261.105 54.3906 260.69 54.8058 260.376 55.367C260.073 55.917 259.921 56.596 259.921 57.404C259.921 58.2121 260.073 58.8968 260.376 59.4579C260.69 60.0079 261.1 60.4231 261.605 60.7037C262.121 60.9731 262.682 61.1077 263.288 61.1077ZM272.086 54.4411C272.344 53.8687 272.737 53.4254 273.265 53.1111C273.803 52.7969 274.46 52.6397 275.234 52.6397V53.8687H274.914C274.061 53.8687 273.377 54.0988 272.861 54.5589C272.344 55.0191 272.086 55.7879 272.086 56.8653V62H270.908V52.8081H272.086V54.4411ZM284.842 53.8014V59.5084C284.842 60.0696 284.949 60.4568 285.162 60.67C285.375 60.8833 285.751 60.9899 286.29 60.9899H287.368V62H286.105C285.274 62 284.657 61.8092 284.253 61.4276C283.849 61.0348 283.647 60.3951 283.647 59.5084V53.8014H282.368V52.8081H283.647V50.5017H284.842V52.8081H287.368V53.8014H284.842ZM294.176 62.1347C293.312 62.1347 292.532 61.9439 291.836 61.5623C291.152 61.1695 290.607 60.6195 290.203 59.9125C289.811 59.1942 289.614 58.358 289.614 57.404C289.614 56.4501 289.816 55.6195 290.22 54.9125C290.624 54.1942 291.174 53.6442 291.87 53.2626C292.566 52.8698 293.346 52.6734 294.21 52.6734C295.074 52.6734 295.854 52.8698 296.55 53.2626C297.257 53.6442 297.807 54.1942 298.2 54.9125C298.604 55.6195 298.806 56.4501 298.806 57.404C298.806 58.3468 298.604 59.1773 298.2 59.8956C297.796 60.6139 297.24 61.1695 296.533 61.5623C295.826 61.9439 295.041 62.1347 294.176 62.1347ZM294.176 61.1077C294.783 61.1077 295.344 60.9731 295.86 60.7037C296.376 60.4231 296.791 60.0079 297.106 59.4579C297.431 58.8968 297.594 58.2121 297.594 57.404C297.594 56.596 297.437 55.917 297.123 55.367C296.808 54.8058 296.393 54.3906 295.877 54.1212C295.361 53.8406 294.799 53.7003 294.193 53.7003C293.587 53.7003 293.026 53.8406 292.51 54.1212C291.994 54.3906 291.578 54.8058 291.264 55.367C290.961 55.917 290.809 56.596 290.809 57.404C290.809 58.2121 290.961 58.8968 291.264 59.4579C291.578 60.0079 291.988 60.4231 292.493 60.7037C293.009 60.9731 293.57 61.1077 294.176 61.1077ZM312.739 52.6397C313.816 52.6397 314.692 52.9821 315.365 53.6667C316.05 54.3401 316.392 55.3221 316.392 56.6128V62H315.23V56.7475C315.23 55.7486 314.989 54.9854 314.506 54.4579C314.024 53.9304 313.367 53.6667 312.537 53.6667C311.673 53.6667 310.982 53.9529 310.466 54.5253C309.95 55.0977 309.692 55.9282 309.692 57.0168V62H308.53V56.7475C308.53 55.7486 308.289 54.9854 307.806 54.4579C307.323 53.9304 306.661 53.6667 305.82 53.6667C304.955 53.6667 304.265 53.9529 303.749 54.5253C303.233 55.0977 302.974 55.9282 302.974 57.0168V62H301.796V52.8081H302.974V54.3906C303.266 53.8182 303.682 53.3861 304.22 53.0943C304.759 52.7913 305.359 52.6397 306.022 52.6397C306.818 52.6397 307.514 52.8305 308.109 53.2121C308.715 53.5937 309.153 54.1549 309.422 54.8956C309.669 54.1661 310.09 53.6106 310.685 53.229C311.291 52.8362 311.976 52.6397 312.739 52.6397ZM319.312 57.3872C319.312 56.4445 319.497 55.6195 319.868 54.9125C320.249 54.1942 320.771 53.6442 321.433 53.2626C322.107 52.8698 322.864 52.6734 323.706 52.6734C324.582 52.6734 325.333 52.8754 325.962 53.2795C326.602 53.6835 327.062 54.1998 327.342 54.8283V52.8081H328.521V62H327.342V59.963C327.051 60.5915 326.585 61.1134 325.945 61.5286C325.317 61.9327 324.565 62.1347 323.689 62.1347C322.859 62.1347 322.107 61.9383 321.433 61.5455C320.771 61.1526 320.249 60.5971 319.868 59.8788C319.497 59.1605 319.312 58.33 319.312 57.3872ZM327.342 57.404C327.342 56.6633 327.191 56.0124 326.888 55.4512C326.585 54.89 326.17 54.4579 325.642 54.1549C325.126 53.8519 324.553 53.7003 323.925 53.7003C323.274 53.7003 322.69 53.8463 322.174 54.1381C321.658 54.4299 321.248 54.8564 320.945 55.4175C320.653 55.9675 320.507 56.624 320.507 57.3872C320.507 58.1392 320.653 58.8014 320.945 59.3737C321.248 59.9349 321.658 60.367 322.174 60.67C322.69 60.9618 323.274 61.1077 323.925 61.1077C324.553 61.1077 325.126 60.9562 325.642 60.6532C326.17 60.3502 326.585 59.9181 326.888 59.3569C327.191 58.7957 327.342 58.1448 327.342 57.404ZM331.514 57.3872C331.514 56.4445 331.705 55.6195 332.087 54.9125C332.468 54.1942 332.99 53.6442 333.652 53.2626C334.326 52.8698 335.083 52.6734 335.925 52.6734C336.733 52.6734 337.463 52.8698 338.114 53.2626C338.764 53.6555 339.241 54.1661 339.545 54.7946V49.5421H340.723V62H339.545V59.9461C339.264 60.5859 338.804 61.1134 338.164 61.5286C337.524 61.9327 336.772 62.1347 335.908 62.1347C335.066 62.1347 334.309 61.9383 333.635 61.5455C332.973 61.1526 332.451 60.5971 332.07 59.8788C331.699 59.1605 331.514 58.33 331.514 57.3872ZM339.545 57.404C339.545 56.6633 339.393 56.0124 339.09 55.4512C338.787 54.89 338.372 54.4579 337.844 54.1549C337.328 53.8519 336.756 53.7003 336.127 53.7003C335.476 53.7003 334.892 53.8463 334.376 54.1381C333.86 54.4299 333.45 54.8564 333.147 55.4175C332.855 55.9675 332.71 56.624 332.71 57.3872C332.71 58.1392 332.855 58.8014 333.147 59.3737C333.45 59.9349 333.86 60.367 334.376 60.67C334.892 60.9618 335.476 61.1077 336.127 61.1077C336.756 61.1077 337.328 60.9562 337.844 60.6532C338.372 60.3502 338.787 59.9181 339.09 59.3569C339.393 58.7957 339.545 58.1448 339.545 57.404ZM343.716 57.3872C343.716 56.4445 343.901 55.6195 344.272 54.9125C344.653 54.1942 345.175 53.6442 345.838 53.2626C346.511 52.8698 347.268 52.6734 348.11 52.6734C348.986 52.6734 349.738 52.8754 350.366 53.2795C351.006 53.6835 351.466 54.1998 351.747 54.8283V52.8081H352.925V62H351.747V59.963C351.455 60.5915 350.989 61.1134 350.349 61.5286C349.721 61.9327 348.969 62.1347 348.093 62.1347C347.263 62.1347 346.511 61.9383 345.838 61.5455C345.175 61.1526 344.653 60.5971 344.272 59.8788C343.901 59.1605 343.716 58.33 343.716 57.3872ZM351.747 57.404C351.747 56.6633 351.595 56.0124 351.292 55.4512C350.989 54.89 350.574 54.4579 350.046 54.1549C349.53 53.8519 348.958 53.7003 348.329 53.7003C347.678 53.7003 347.095 53.8463 346.578 54.1381C346.062 54.4299 345.652 54.8564 345.349 55.4175C345.057 55.9675 344.912 56.624 344.912 57.3872C344.912 58.1392 345.057 58.8014 345.349 59.3737C345.652 59.9349 346.062 60.367 346.578 60.67C347.095 60.9618 347.678 61.1077 348.329 61.1077C348.958 61.1077 349.53 60.9562 350.046 60.6532C350.574 60.3502 350.989 59.9181 351.292 59.3569C351.595 58.7957 351.747 58.1448 351.747 57.404ZM361.38 57.3872C361.38 56.4445 361.571 55.6195 361.952 54.9125C362.334 54.1942 362.856 53.6442 363.518 53.2626C364.191 52.8698 364.949 52.6734 365.791 52.6734C366.599 52.6734 367.328 52.8698 367.979 53.2626C368.63 53.6555 369.107 54.1661 369.41 54.7946V49.5421H370.589V62H369.41V59.9461C369.13 60.5859 368.669 61.1134 368.03 61.5286C367.39 61.9327 366.638 62.1347 365.774 62.1347C364.932 62.1347 364.174 61.9383 363.501 61.5455C362.839 61.1526 362.317 60.5971 361.935 59.8788C361.565 59.1605 361.38 58.33 361.38 57.3872ZM369.41 57.404C369.41 56.6633 369.259 56.0124 368.956 55.4512C368.653 54.89 368.237 54.4579 367.71 54.1549C367.194 53.8519 366.621 53.7003 365.993 53.7003C365.342 53.7003 364.758 53.8463 364.242 54.1381C363.726 54.4299 363.316 54.8564 363.013 55.4175C362.721 55.9675 362.575 56.624 362.575 57.3872C362.575 58.1392 362.721 58.8014 363.013 59.3737C363.316 59.9349 363.726 60.367 364.242 60.67C364.758 60.9618 365.342 61.1077 365.993 61.1077C366.621 61.1077 367.194 60.9562 367.71 60.6532C368.237 60.3502 368.653 59.9181 368.956 59.3569C369.259 58.7957 369.41 58.1448 369.41 57.404ZM382.437 56.9327C382.437 57.3367 382.426 57.6453 382.404 57.8586H374.777C374.811 58.5544 374.979 59.1493 375.282 59.6431C375.585 60.1369 375.984 60.5129 376.478 60.771C376.971 61.018 377.51 61.1414 378.094 61.1414C378.857 61.1414 379.497 60.9562 380.013 60.5859C380.54 60.2155 380.888 59.7161 381.057 59.0875H382.303C382.078 59.9854 381.595 60.7205 380.855 61.2929C380.125 61.8541 379.205 62.1347 378.094 62.1347C377.23 62.1347 376.455 61.9439 375.771 61.5623C375.086 61.1695 374.547 60.6195 374.154 59.9125C373.773 59.1942 373.582 58.358 373.582 57.404C373.582 56.4501 373.773 55.6139 374.154 54.8956C374.536 54.1773 375.069 53.6274 375.754 53.2458C376.438 52.8642 377.218 52.6734 378.094 52.6734C378.969 52.6734 379.732 52.8642 380.383 53.2458C381.045 53.6274 381.551 54.1437 381.898 54.7946C382.258 55.4344 382.437 56.147 382.437 56.9327ZM381.242 56.899C381.253 56.2144 381.113 55.6308 380.821 55.1482C380.54 54.6656 380.153 54.3008 379.659 54.0539C379.166 53.807 378.627 53.6835 378.043 53.6835C377.168 53.6835 376.421 53.9641 375.804 54.5253C375.187 55.0864 374.845 55.8777 374.777 56.899H381.242ZM390.358 57.3872C390.358 56.4445 390.549 55.6195 390.93 54.9125C391.312 54.1942 391.834 53.6442 392.496 53.2626C393.169 52.8698 393.927 52.6734 394.769 52.6734C395.577 52.6734 396.306 52.8698 396.957 53.2626C397.608 53.6555 398.085 54.1661 398.388 54.7946V49.5421H399.567V62H398.388V59.9461C398.107 60.5859 397.647 61.1134 397.008 61.5286C396.368 61.9327 395.616 62.1347 394.752 62.1347C393.91 62.1347 393.152 61.9383 392.479 61.5455C391.817 61.1526 391.295 60.5971 390.913 59.8788C390.543 59.1605 390.358 58.33 390.358 57.3872ZM398.388 57.404C398.388 56.6633 398.237 56.0124 397.934 55.4512C397.63 54.89 397.215 54.4579 396.688 54.1549C396.171 53.8519 395.599 53.7003 394.971 53.7003C394.32 53.7003 393.736 53.8463 393.22 54.1381C392.703 54.4299 392.294 54.8564 391.991 55.4175C391.699 55.9675 391.553 56.624 391.553 57.3872C391.553 58.1392 391.699 58.8014 391.991 59.3737C392.294 59.9349 392.703 60.367 393.22 60.67C393.736 60.9618 394.32 61.1077 394.971 61.1077C395.599 61.1077 396.171 60.9562 396.688 60.6532C397.215 60.3502 397.63 59.9181 397.934 59.3569C398.237 58.7957 398.388 58.1448 398.388 57.404ZM411.415 56.9327C411.415 57.3367 411.404 57.6453 411.381 57.8586H403.755C403.789 58.5544 403.957 59.1493 404.26 59.6431C404.563 60.1369 404.962 60.5129 405.455 60.771C405.949 61.018 406.488 61.1414 407.072 61.1414C407.835 61.1414 408.475 60.9562 408.991 60.5859C409.518 60.2155 409.866 59.7161 410.035 59.0875H411.28C411.056 59.9854 410.573 60.7205 409.833 61.2929C409.103 61.8541 408.183 62.1347 407.072 62.1347C406.207 62.1347 405.433 61.9439 404.748 61.5623C404.064 61.1695 403.525 60.6195 403.132 59.9125C402.751 59.1942 402.56 58.358 402.56 57.404C402.56 56.4501 402.751 55.6139 403.132 54.8956C403.514 54.1773 404.047 53.6274 404.732 53.2458C405.416 52.8642 406.196 52.6734 407.072 52.6734C407.947 52.6734 408.71 52.8642 409.361 53.2458C410.023 53.6274 410.528 54.1437 410.876 54.7946C411.235 55.4344 411.415 56.147 411.415 56.9327ZM410.22 56.899C410.231 56.2144 410.091 55.6308 409.799 55.1482C409.518 54.6656 409.131 54.3008 408.637 54.0539C408.143 53.807 407.605 53.6835 407.021 53.6835C406.146 53.6835 405.399 53.9641 404.782 54.5253C404.165 55.0864 403.822 55.8777 403.755 56.899H410.22ZM413.874 57.404C413.874 56.4501 414.065 55.6195 414.447 54.9125C414.828 54.1942 415.356 53.6442 416.029 53.2626C416.702 52.8698 417.471 52.6734 418.335 52.6734C419.469 52.6734 420.401 52.954 421.13 53.5152C421.871 54.0763 422.348 54.8395 422.561 55.8047H421.298C421.141 55.1425 420.799 54.6263 420.271 54.2559C419.755 53.8743 419.11 53.6835 418.335 53.6835C417.718 53.6835 417.163 53.8238 416.669 54.1044C416.175 54.385 415.782 54.8058 415.49 55.367C415.21 55.917 415.069 56.596 415.069 57.404C415.069 58.2121 415.21 58.8968 415.49 59.4579C415.782 60.0191 416.175 60.44 416.669 60.7205C417.163 61.0011 417.718 61.1414 418.335 61.1414C419.11 61.1414 419.755 60.9562 420.271 60.5859C420.799 60.2043 421.141 59.6768 421.298 59.0034H422.561C422.348 59.9461 421.871 60.7037 421.13 61.2761C420.389 61.8485 419.458 62.1347 418.335 62.1347C417.471 62.1347 416.702 61.9439 416.029 61.5623C415.356 61.1695 414.828 60.6195 414.447 59.9125C414.065 59.1942 413.874 58.358 413.874 57.404ZM426.168 51.0741C425.933 51.0741 425.731 50.9899 425.562 50.8216C425.394 50.6532 425.31 50.4456 425.31 50.1987C425.31 49.9518 425.394 49.7497 425.562 49.5926C425.731 49.4243 425.933 49.3401 426.168 49.3401C426.404 49.3401 426.606 49.4243 426.774 49.5926C426.943 49.7497 427.027 49.9518 427.027 50.1987C427.027 50.4456 426.943 50.6532 426.774 50.8216C426.606 50.9899 426.404 51.0741 426.168 51.0741ZM426.758 52.8081V62H425.579V52.8081H426.758ZM433.433 62.1347C432.378 62.1347 431.514 61.8934 430.84 61.4108C430.178 60.9169 429.808 60.2492 429.729 59.4074H430.941C430.998 59.9237 431.239 60.3446 431.665 60.67C432.103 60.9843 432.687 61.1414 433.416 61.1414C434.056 61.1414 434.555 60.9899 434.914 60.6869C435.285 60.3838 435.47 60.0079 435.47 59.5589C435.47 59.2447 435.369 58.9865 435.167 58.7845C434.965 58.5825 434.707 58.4254 434.393 58.3131C434.09 58.1897 433.674 58.0606 433.147 57.9259C432.462 57.7464 431.907 57.5668 431.48 57.3872C431.054 57.2076 430.689 56.9439 430.386 56.596C430.094 56.2368 429.948 55.7598 429.948 55.165C429.948 54.7161 430.083 54.3008 430.352 53.9192C430.622 53.5376 431.003 53.2346 431.497 53.0101C431.991 52.7856 432.552 52.6734 433.18 52.6734C434.168 52.6734 434.965 52.9259 435.571 53.431C436.177 53.9248 436.503 54.6094 436.547 55.4849H435.369C435.335 54.9461 435.122 54.514 434.729 54.1886C434.348 53.8519 433.82 53.6835 433.147 53.6835C432.552 53.6835 432.069 53.8238 431.699 54.1044C431.329 54.385 431.143 54.7329 431.143 55.1482C431.143 55.5073 431.25 55.8047 431.463 56.0404C431.688 56.2649 431.963 56.4445 432.288 56.5791C432.614 56.7026 433.051 56.8429 433.601 57C434.264 57.1796 434.791 57.3535 435.184 57.5219C435.577 57.6902 435.913 57.9372 436.194 58.2626C436.475 58.5881 436.62 59.0202 436.632 59.5589C436.632 60.0528 436.497 60.4961 436.228 60.8889C435.958 61.2705 435.582 61.5735 435.1 61.798C434.617 62.0224 434.061 62.1347 433.433 62.1347ZM439.153 57.3872C439.153 56.4445 439.338 55.6195 439.708 54.9125C440.09 54.1942 440.612 53.6442 441.274 53.2626C441.948 52.8698 442.705 52.6734 443.547 52.6734C444.422 52.6734 445.174 52.8754 445.803 53.2795C446.442 53.6835 446.903 54.1998 447.183 54.8283V52.8081H448.362V62H447.183V59.963C446.891 60.5915 446.426 61.1134 445.786 61.5286C445.157 61.9327 444.405 62.1347 443.53 62.1347C442.699 62.1347 441.948 61.9383 441.274 61.5455C440.612 61.1526 440.09 60.5971 439.708 59.8788C439.338 59.1605 439.153 58.33 439.153 57.3872ZM447.183 57.404C447.183 56.6633 447.032 56.0124 446.729 55.4512C446.426 54.89 446.01 54.4579 445.483 54.1549C444.967 53.8519 444.394 53.7003 443.766 53.7003C443.115 53.7003 442.531 53.8463 442.015 54.1381C441.499 54.4299 441.089 54.8564 440.786 55.4175C440.494 55.9675 440.348 56.624 440.348 57.3872C440.348 58.1392 440.494 58.8014 440.786 59.3737C441.089 59.9349 441.499 60.367 442.015 60.67C442.531 60.9618 443.115 61.1077 443.766 61.1077C444.394 61.1077 444.967 60.9562 445.483 60.6532C446.01 60.3502 446.426 59.9181 446.729 59.3569C447.032 58.7957 447.183 58.1448 447.183 57.404ZM441.83 51.798C441.897 51.2929 442.06 50.9057 442.318 50.6364C442.576 50.367 442.907 50.2323 443.311 50.2323C443.513 50.2323 443.687 50.2716 443.833 50.3502C443.979 50.4175 444.153 50.5185 444.355 50.6532C444.523 50.7767 444.669 50.8721 444.793 50.9394C444.916 50.9955 445.051 51.0236 445.197 51.0236C445.387 51.0236 445.55 50.9619 445.685 50.8384C445.82 50.7037 445.904 50.5129 445.937 50.266H446.644C446.6 50.7598 446.437 51.147 446.156 51.4276C445.887 51.697 445.55 51.8317 445.146 51.8317C444.933 51.8317 444.748 51.798 444.591 51.7307C444.445 51.6521 444.271 51.5399 444.069 51.394C443.912 51.2705 443.771 51.1807 443.648 51.1246C443.536 51.0685 443.407 51.0404 443.261 51.0404C442.857 51.0404 442.621 51.2929 442.554 51.798H441.83ZM455.917 62.1347C455.053 62.1347 454.273 61.9439 453.577 61.5623C452.893 61.1695 452.348 60.6195 451.944 59.9125C451.551 59.1942 451.355 58.358 451.355 57.404C451.355 56.4501 451.557 55.6195 451.961 54.9125C452.365 54.1942 452.915 53.6442 453.611 53.2626C454.307 52.8698 455.087 52.6734 455.951 52.6734C456.815 52.6734 457.595 52.8698 458.291 53.2626C458.998 53.6442 459.548 54.1942 459.941 54.9125C460.345 55.6195 460.547 56.4501 460.547 57.404C460.547 58.3468 460.345 59.1773 459.941 59.8956C459.537 60.6139 458.981 61.1695 458.274 61.5623C457.567 61.9439 456.781 62.1347 455.917 62.1347ZM455.917 61.1077C456.523 61.1077 457.085 60.9731 457.601 60.7037C458.117 60.4231 458.532 60.0079 458.847 59.4579C459.172 58.8968 459.335 58.2121 459.335 57.404C459.335 56.596 459.178 55.917 458.863 55.367C458.549 54.8058 458.134 54.3906 457.618 54.1212C457.101 53.8406 456.54 53.7003 455.934 53.7003C455.328 53.7003 454.767 53.8406 454.251 54.1212C453.734 54.3906 453.319 54.8058 453.005 55.367C452.702 55.917 452.55 56.596 452.55 57.404C452.55 58.2121 452.702 58.8968 453.005 59.4579C453.319 60.0079 453.729 60.4231 454.234 60.7037C454.75 60.9731 455.311 61.1077 455.917 61.1077ZM463.739 62.0842C463.492 62.0842 463.284 62 463.116 61.8317C462.959 61.6633 462.88 61.4557 462.88 61.2088C462.88 60.9618 462.959 60.7598 463.116 60.6027C463.284 60.4343 463.492 60.3502 463.739 60.3502C463.975 60.3502 464.171 60.4343 464.328 60.6027C464.496 60.7598 464.581 60.9618 464.581 61.2088C464.581 61.4557 464.496 61.6633 464.328 61.8317C464.171 62 463.975 62.0842 463.739 62.0842Z" fill="white"/>
<mask id="mask0_75_721" style="mask-type:luminance" maskUnits="userSpaceOnUse" x="0" y="11" width="44" height="33">
<path d="M22.2724 43.9828L0 21.9824L10.5123 11.5981L43.1955 43.9828H22.2724Z" fill="white"/>
</mask>
<g mask="url(#mask0_75_721)">
<path d="M22.2724 43.9828L0 21.9824L10.5123 11.5981L43.1955 43.9828H22.2724Z" fill="url(#paint0_linear_75_721)"/>
</g>
<mask id="mask1_75_721" style="mask-type:luminance" maskUnits="userSpaceOnUse" x="10" y="0" width="34" height="22">
<path d="M10.4774 11.6329L22.2372 0.0172126H43.1602L20.9226 21.9824L10.4774 11.6329Z" fill="white"/>
</mask>
<g mask="url(#mask1_75_721)">
<path d="M10.4774 11.6329L22.2372 0.0172126H43.1602L20.9226 21.9824L10.4774 11.6329Z" fill="#35E4FF"/>
</g>
<mask id="mask2_75_721" style="mask-type:luminance" maskUnits="userSpaceOnUse" x="32" y="0" width="56" height="44">
<path d="M66.7779 0.0343994L66.76 -5.46116e-06L32.7146 33.6325L43.1601 43.9828L87.6747 0.00859325L66.7779 0.0343994Z" fill="white"/>
</mask>
<g mask="url(#mask2_75_721)">
<path d="M66.7779 0.0343994L66.76 -5.46116e-06L32.7146 33.6325L43.1601 43.9828L87.6747 0.00859325L66.7779 0.0343994Z" fill="url(#paint1_linear_75_721)"/>
</g>
<mask id="mask3_75_721" style="mask-type:luminance" maskUnits="userSpaceOnUse" x="77" y="0" width="33" height="33">
<path d="M110 22.009L87.7272 0.00860117H87.6749L77.2236 10.3327L99.4873 32.3937L110 22.009Z" fill="white"/>
</mask>
<g mask="url(#mask3_75_721)">
<path d="M110 22.009L87.7272 0.00860117H87.6749L77.2236 10.3327L99.4873 32.3937L110 22.009Z" fill="url(#paint2_linear_75_721)"/>
</g>
<mask id="mask4_75_721" style="mask-type:luminance" maskUnits="userSpaceOnUse" x="66" y="22" width="34" height="22">
<path d="M99.496 32.3843L87.7358 44H66.8132L89.0508 22.0348L99.496 32.3843Z" fill="white"/>
</mask>
<g mask="url(#mask4_75_721)">
<path d="M99.496 32.3843L87.7358 44H66.8132L89.0508 22.0348L99.496 32.3843Z" fill="#35E4FF"/>
</g>
<defs>
<linearGradient id="paint0_linear_75_721" x1="21.5977" y1="43.9828" x2="21.5977" y2="11.5981" gradientUnits="userSpaceOnUse">
<stop stop-color="#87EBC8"/>
<stop offset="1" stop-color="#35E4FF"/>
</linearGradient>
<linearGradient id="paint1_linear_75_721" x1="60.1947" y1="-3.8147e-06" x2="60.1947" y2="43.9828" gradientUnits="userSpaceOnUse">
<stop stop-color="#67CEF5"/>
<stop offset="1" stop-color="#87EBC8"/>
</linearGradient>
<linearGradient id="paint2_linear_75_721" x1="93.6118" y1="0.00860214" x2="93.6118" y2="32.3937" gradientUnits="userSpaceOnUse">
<stop stop-color="#67CEF5"/>
<stop offset="1" stop-color="#35E4FF"/>
</linearGradient>
</defs>
</svg>
